<svg width="36" height="36" viewBox="0 0 36 36" fill="none" xmlns="http://www.w3.org/2000/svg">
<path d="M0 18C0 27.9411 8.05888 36 18 36C27.9411 36 36 27.9411 36 18C36 8.05888 27.9411 0 18 0C8.05888 0 0 8.05888 0 18Z" fill="white"/>
<mask id="mask0_636_124" style="mask-type:alpha" maskUnits="userSpaceOnUse" x="6" y="6" width="24" height="23">
<path d="M29.5122 6.23814H6.19519V29H29.5122V6.23814Z" fill="#C4C4C4"/>
</mask>
<g mask="url(#mask0_636_124)">
<path d="M12.8859 20.7579C12.8198 21.0089 12.6048 21.0696 12.4147 20.8915L8.64134 17.443C8.44709 17.2649 8.48842 17.0423 8.7364 16.9451L14.0307 14.8727C14.2787 14.7756 14.4233 14.9051 14.3572 15.1561L12.8859 20.7579Z" fill="url(#paint0_linear_636_124)"/>
<path d="M9.76961 24.0365C9.56709 24.2065 9.36457 24.1378 9.31911 23.8787L8.28587 18.2728C8.24041 18.0178 8.36027 17.953 8.55452 18.1311L12.1461 21.4137C12.3403 21.5918 12.3362 21.8752 12.1337 22.0452L9.76961 24.0365Z" fill="url(#paint1_linear_636_124)"/>
<path d="M14.1011 13.7557C14.2746 13.954 14.2127 14.1928 13.9688 14.2899L8.7034 16.3502C8.45542 16.4473 8.33143 16.3259 8.42235 16.083L10.5839 10.3921C10.6748 10.1492 10.8939 10.1088 11.0674 10.3071L14.1011 13.7557Z" fill="url(#paint2_linear_636_124)"/>
<path d="M8.58766 23.0813C8.63312 23.3362 8.55459 23.3687 8.40995 23.1501L6.36826 20.0618C6.22361 19.8432 6.23601 19.4951 6.39306 19.2846L7.30645 18.0865C7.4635 17.8801 7.63294 17.9165 7.68254 18.1715L8.58766 23.0813Z" fill="url(#paint3_linear_636_124)"/>
<path d="M7.94292 15.735C7.852 15.9778 7.70735 15.9778 7.62055 15.7309L6.92208 13.6828C6.83942 13.4359 6.93035 13.0919 7.12873 12.9179L9.61677 10.7119C9.81516 10.5379 9.89782 10.5945 9.80689 10.8374L7.94292 15.735Z" fill="url(#paint4_linear_636_124)"/>
<path d="M7.28572 16.5242C7.36838 16.7711 7.31052 17.1434 7.14933 17.3499L6.43846 18.2889C6.28141 18.4954 6.17395 18.4549 6.19875 18.1958L6.54178 14.9416C6.57072 14.6825 6.66164 14.6744 6.7443 14.9213L7.28572 16.5242Z" fill="url(#paint5_linear_636_124)"/>
<path d="M10.092 9.19803C10.1788 9.29922 10.092 9.52184 9.89366 9.69994L8.77776 10.6916C8.57938 10.8656 8.55045 10.8373 8.7075 10.6309L9.64568 9.39636C9.80273 9.18589 10.0053 9.09684 10.092 9.19803Z" fill="url(#paint6_linear_636_124)"/>
<path d="M17.1509 26.5137C17.0187 26.7363 16.7831 26.7484 16.6343 26.5339L13.7082 22.3649C13.5594 22.1504 13.6503 21.9521 13.9148 21.9277L19.7919 21.3328C20.0564 21.3045 20.1639 21.4663 20.0275 21.693L17.1509 26.5137Z" fill="url(#paint7_linear_636_124)"/>
<path d="M15.9278 26.5177C16.0767 26.7322 15.994 26.8374 15.746 26.7565L10.2368 24.9229C9.98464 24.8379 9.94331 24.6315 10.1458 24.4615L12.5058 22.4701C12.7083 22.3001 12.9934 22.3365 13.1464 22.551L15.9278 26.5177Z" fill="url(#paint8_linear_636_124)"/>
<path d="M19.9159 20.3653C20.0895 20.5636 20.0151 20.7458 19.7506 20.7741L13.7868 21.3772C13.5222 21.4055 13.3611 21.2194 13.4272 20.9684L14.9192 15.2815C14.9853 15.0306 15.1796 14.9861 15.3532 15.1803L19.9159 20.3653Z" fill="url(#paint9_linear_636_124)"/>
<path d="M24.1978 25.2386C24.3714 25.4369 24.3011 25.6393 24.0408 25.696L17.9736 26.9467C17.7132 26.9993 17.6099 26.8617 17.7462 26.635L20.6063 21.8426C20.7385 21.62 20.9906 21.5958 21.1642 21.7941L24.1978 25.2386Z" fill="url(#paint10_linear_636_124)"/>
<path d="M14.4401 28.4363C14.2045 28.5577 13.8532 28.5172 13.6548 28.3472L10.8361 25.9106C10.6378 25.7366 10.6791 25.6677 10.9312 25.7487L15.7502 27.3515C16.0023 27.4365 16.0148 27.6025 15.7833 27.7279L14.4401 28.4363Z" fill="url(#paint11_linear_636_124)"/>
<path d="M20.9823 28.667C20.7757 28.8329 20.4161 28.8694 20.1764 28.752L18.2133 27.7725C17.9777 27.6551 17.9942 27.5134 18.2546 27.4608L23.4828 26.3842C23.7432 26.3315 23.7887 26.4206 23.582 26.5865L20.9823 28.667Z" fill="url(#paint12_linear_636_124)"/>
<path d="M15.5104 28.7843C15.2459 28.7721 15.2211 28.6629 15.4525 28.5374L16.5065 27.9829C16.742 27.8615 17.1264 27.8574 17.362 27.9748L18.8995 28.7398C19.135 28.8571 19.1144 28.9462 18.8457 28.9341L15.5104 28.7843Z" fill="url(#paint13_linear_636_124)"/>
<path d="M25.1774 26.3477C25.2642 26.4489 25.1484 26.631 24.9129 26.7524L23.5283 27.477C23.2927 27.5984 23.2721 27.566 23.4746 27.4001L24.6442 26.4651C24.8467 26.2992 25.0864 26.2465 25.1774 26.3477Z" fill="url(#paint14_linear_636_124)"/>
<path d="M21.6725 20.3046C21.4246 20.4017 21.2799 20.2722 21.346 20.0213L22.8174 14.4194C22.8835 14.1684 23.0984 14.1077 23.2927 14.2858L27.0661 17.7344C27.2603 17.9125 27.219 18.1351 26.971 18.2322L21.6725 20.3046Z" fill="url(#paint15_linear_636_124)"/>
<path d="M27.4215 16.9047C27.467 17.1597 27.3471 17.2245 27.1529 17.0464L23.5613 13.7638C23.3671 13.5857 23.3713 13.3024 23.5737 13.1324L25.9337 11.1409C26.1362 10.9709 26.3387 11.0397 26.3842 11.2988L27.4215 16.9047Z" fill="url(#paint16_linear_636_124)"/>
<path d="M25.1195 24.7854C25.0286 25.0282 24.8095 25.0687 24.6359 24.8704L21.6023 21.4218C21.4287 21.2235 21.4908 20.9847 21.7346 20.8875L27 18.8273C27.248 18.7302 27.372 18.8516 27.281 19.0945L25.1195 24.7854Z" fill="url(#paint17_linear_636_124)"/>
<path d="M29.3351 15.1157C29.4798 15.3342 29.4674 15.6823 29.3104 15.8928L28.3969 17.0868C28.2399 17.2933 28.0704 17.2568 28.0209 17.0018L27.1157 12.0961C27.0703 11.8411 27.1488 11.8088 27.2934 12.0273L29.3351 15.1157Z" fill="url(#paint18_linear_636_124)"/>
<path d="M28.7771 21.4986C28.8597 21.7455 28.7688 22.0896 28.5704 22.2636L26.0824 24.4695C25.884 24.6436 25.8013 24.587 25.8922 24.3441L27.7562 19.4424C27.8472 19.1996 27.9918 19.1996 28.0786 19.4465L28.7771 21.4986Z" fill="url(#paint19_linear_636_124)"/>
<path d="M29.1656 20.2318C29.1366 20.4908 29.0457 20.4989 28.963 20.252L28.4175 18.6491C28.3348 18.4023 28.3968 18.0299 28.5539 17.8234L29.2689 16.8844C29.4259 16.678 29.5334 16.7184 29.5086 16.9775L29.1656 20.2318Z" fill="url(#paint20_linear_636_124)"/>
<path d="M26.0576 25.7811C25.9005 25.9916 25.698 26.0766 25.6071 25.9794C25.5203 25.8782 25.607 25.6556 25.8055 25.4775L26.9255 24.4858C27.1239 24.3118 27.1528 24.3401 26.9957 24.5466L26.0576 25.7811Z" fill="url(#paint21_linear_636_124)"/>
<path d="M21.9951 12.8125C22.1439 13.027 22.0529 13.2253 21.7884 13.2496L15.9114 13.8446C15.6468 13.8729 15.5394 13.7111 15.6758 13.4844L18.5523 8.66368C18.6846 8.44106 18.9202 8.42892 19.0689 8.64344L21.9951 12.8125Z" fill="url(#paint22_linear_636_124)"/>
<path d="M23.1977 12.7073C22.9952 12.8773 22.71 12.8409 22.5571 12.6263L19.7756 8.65967C19.6268 8.44515 19.7095 8.33991 19.9574 8.42086L25.4666 10.2544C25.7188 10.3394 25.7601 10.5459 25.5576 10.7158L23.1977 12.7073Z" fill="url(#paint23_linear_636_124)"/>
<path d="M20.784 19.8958C20.7179 20.1467 20.5236 20.1913 20.35 19.9969L15.7914 14.812C15.6178 14.6137 15.6922 14.4315 15.9567 14.4032L21.9205 13.8001C22.1851 13.7717 22.3462 13.9579 22.2801 14.2089L20.784 19.8958Z" fill="url(#paint24_linear_636_124)"/>
<path d="M15.097 13.3387C14.9648 13.5613 14.7127 13.5856 14.5391 13.3873L11.5055 9.9387C11.3319 9.74038 11.4021 9.538 11.6625 9.48133L17.7297 8.23062C17.9901 8.178 18.0934 8.31562 17.957 8.54229L15.097 13.3387Z" fill="url(#paint25_linear_636_124)"/>
<path d="M19.9533 7.82593C19.7012 7.74093 19.6888 7.57498 19.9203 7.44951L21.2635 6.74522C21.4991 6.6238 21.8504 6.66427 22.0528 6.83427L24.8674 9.27093C25.0658 9.44497 25.0245 9.51378 24.7724 9.43283L19.9533 7.82593Z" fill="url(#paint26_linear_636_124)"/>
<path d="M12.2206 8.7933C11.9602 8.84592 11.9148 8.75687 12.1214 8.59092L14.7169 6.51046C14.9236 6.3445 15.2831 6.30808 15.5229 6.42546L17.4902 7.40497C17.7257 7.52235 17.7092 7.66402 17.4488 7.71664L12.2206 8.7933Z" fill="url(#paint27_linear_636_124)"/>
<path d="M19.201 7.19042C18.9654 7.31185 18.581 7.3159 18.3455 7.19852L16.808 6.43352C16.5725 6.31614 16.5931 6.22709 16.8618 6.23924L20.1971 6.389C20.4616 6.40114 20.4864 6.51043 20.2549 6.6359L19.201 7.19042Z" fill="url(#paint28_linear_636_124)"/>
<path d="M11.0633 8.71235C10.8566 8.8783 10.6169 8.93092 10.5301 8.82973C10.4433 8.72854 10.559 8.5464 10.7946 8.42498L12.1792 7.70045C12.4147 7.57902 12.4354 7.61141 12.2329 7.77736L11.0633 8.71235Z" fill="url(#paint29_linear_636_124)"/>
<path d="M9.28621 25.186C9.38953 25.101 9.61685 25.186 9.7987 25.3803L10.8113 26.4772C10.989 26.6715 10.9601 26.6998 10.7493 26.546L9.48459 25.6272C9.27381 25.4734 9.18288 25.275 9.28621 25.186Z" fill="url(#paint30_linear_636_124)"/>
<path d="M26.7932 10.4164C26.8965 10.3314 27.0825 10.4447 27.2065 10.6754L27.9464 12.0314C28.0703 12.2621 28.0372 12.2823 27.8678 12.084L26.9131 10.9385C26.7478 10.7402 26.6941 10.5014 26.7932 10.4164Z" fill="url(#paint31_linear_636_124)"/>
<path d="M26.2187 9.55014C26.4336 9.70395 26.5204 9.90228 26.4212 9.99133C26.3179 10.0763 26.0906 9.99133 25.9087 9.79704L24.8962 8.70015C24.7185 8.50586 24.7474 8.47753 24.9581 8.63133L26.2187 9.55014Z" fill="url(#paint32_linear_636_124)"/>
<path d="M8.79011 24.2389C8.95956 24.4412 9.01329 24.676 8.90996 24.761C8.80664 24.846 8.62066 24.7326 8.49667 24.502L7.75687 23.146C7.63288 22.9153 7.66594 22.895 7.8354 23.0934L8.79011 24.2389Z" fill="url(#paint33_linear_636_124)"/>
</g>
<circle cx="25.9988" cy="25.9999" r="6.5" fill="url(#paint34_radial_636_124)"/>
<path fill-rule="evenodd" clip-rule="evenodd" d="M30.1126 25.9241H30.1127C30.112 23.6938 28.3141 21.886 26.0963 21.886L26.0954 21.886V21.8864C26.0902 21.8862 26.0851 21.886 26.0799 21.886C25.8836 21.886 25.7245 22.0461 25.7245 22.2435C25.7245 22.4409 25.8836 22.6009 26.0799 22.6009C26.0851 22.6009 26.0902 22.6007 26.0954 22.6005V22.6009L26.0963 22.6009C27.9215 22.6009 29.4012 24.0886 29.4019 25.9241H29.4021L29.402 25.9293C29.402 26.1267 29.5611 26.2867 29.7573 26.2867C29.9536 26.2867 30.1127 26.1267 30.1127 25.9293L30.1126 25.9241ZM25.9988 27.4406C25.2119 27.4406 24.574 26.8008 24.574 26.0117C24.574 25.2225 25.2119 24.5828 25.9988 24.5828C26.7857 24.5828 27.4236 25.2225 27.4236 26.0117C27.4236 26.8008 26.7857 27.4406 25.9988 27.4406ZM25.9988 23.5363C24.6356 23.5363 23.5305 24.6445 23.5305 26.0117C23.5305 27.3788 24.6356 28.487 25.9988 28.487C27.3621 28.487 28.4672 27.3788 28.4672 26.0117C28.4672 24.6445 27.3621 23.5363 25.9988 23.5363ZM25.9022 29.4225C25.9074 29.4223 25.9125 29.4221 25.9177 29.4221C26.1139 29.4221 26.2731 29.5821 26.2731 29.7795C26.2731 29.9769 26.1139 30.1369 25.9177 30.1369C25.9125 30.1369 25.9074 30.1367 25.9022 30.1365V30.1369H25.9177H25.9607C25.9416 30.1371 25.9224 30.1373 25.9032 30.1373C25.5912 30.1373 25.2876 30.1015 24.996 30.0339C23.2142 29.6211 21.8856 28.0163 21.8849 26.0992H21.885L21.8849 26.094C21.8849 25.8966 22.044 25.7366 22.2403 25.7366C22.4365 25.7366 22.5957 25.8966 22.5957 26.094L22.5956 26.0968H22.5976L22.5976 26.0982C22.5976 27.6894 23.7094 29.0192 25.1943 29.3456C25.4221 29.3955 25.6586 29.4221 25.9013 29.4221L25.9022 29.4221V29.4225ZM29.5642 26.6534C29.3623 26.6534 29.1985 26.8176 29.1985 27.0202C29.1985 27.2227 29.3623 27.3869 29.5642 27.3869C29.7662 27.3869 29.9299 27.2227 29.9299 27.0202C29.9299 26.8176 29.7662 26.6534 29.5642 26.6534ZM22.7991 25.0032C22.7991 25.2057 22.6353 25.3699 22.4334 25.3699C22.2315 25.3699 22.0677 25.2057 22.0677 25.0032C22.0677 24.8006 22.2315 24.6364 22.4334 24.6364C22.6353 24.6364 22.7991 24.8006 22.7991 25.0032Z" fill="white"/>
<defs>
<linearGradient id="paint0_linear_636_124" x1="17.8537" y1="6.2381" x2="17.8758" y2="33.8854" gradientUnits="userSpaceOnUse">
<stop stop-color="#DA88DE"/>
<stop offset="0.373617" stop-color="#5E75E8"/>
<stop offset="1" stop-color="#80C6EB"/>
</linearGradient>
<linearGradient id="paint1_linear_636_124" x1="17.8537" y1="6.23816" x2="17.8757" y2="33.8855" gradientUnits="userSpaceOnUse">
<stop stop-color="#DA88DE"/>
<stop offset="0.373617" stop-color="#5E75E8"/>
<stop offset="1" stop-color="#80C6EB"/>
</linearGradient>
<linearGradient id="paint2_linear_636_124" x1="17.8538" y1="6.23815" x2="17.8758" y2="33.8855" gradientUnits="userSpaceOnUse">
<stop stop-color="#DA88DE"/>
<stop offset="0.373617" stop-color="#5E75E8"/>
<stop offset="1" stop-color="#80C6EB"/>
</linearGradient>
<linearGradient id="paint3_linear_636_124" x1="17.8538" y1="6.2381" x2="17.8758" y2="33.8854" gradientUnits="userSpaceOnUse">
<stop stop-color="#DA88DE"/>
<stop offset="0.373617" stop-color="#5E75E8"/>
<stop offset="1" stop-color="#80C6EB"/>
</linearGradient>
<linearGradient id="paint4_linear_636_124" x1="17.8538" y1="6.2382" x2="17.8758" y2="33.8855" gradientUnits="userSpaceOnUse">
<stop stop-color="#DA88DE"/>
<stop offset="0.373617" stop-color="#5E75E8"/>
<stop offset="1" stop-color="#80C6EB"/>
</linearGradient>
<linearGradient id="paint5_linear_636_124" x1="17.8537" y1="6.2381" x2="17.8757" y2="33.8854" gradientUnits="userSpaceOnUse">
<stop stop-color="#DA88DE"/>
<stop offset="0.373617" stop-color="#5E75E8"/>
<stop offset="1" stop-color="#80C6EB"/>
</linearGradient>
<linearGradient id="paint6_linear_636_124" x1="17.8537" y1="6.23813" x2="17.8758" y2="33.8855" gradientUnits="userSpaceOnUse">
<stop stop-color="#DA88DE"/>
<stop offset="0.373617" stop-color="#5E75E8"/>
<stop offset="1" stop-color="#80C6EB"/>
</linearGradient>
<linearGradient id="paint7_linear_636_124" x1="17.8535" y1="6.23817" x2="17.8756" y2="33.8855" gradientUnits="userSpaceOnUse">
<stop stop-color="#DA88DE"/>
<stop offset="0.373617" stop-color="#5E75E8"/>
<stop offset="1" stop-color="#80C6EB"/>
</linearGradient>
<linearGradient id="paint8_linear_636_124" x1="17.8538" y1="6.23812" x2="17.8758" y2="33.8854" gradientUnits="userSpaceOnUse">
<stop stop-color="#DA88DE"/>
<stop offset="0.373617" stop-color="#5E75E8"/>
<stop offset="1" stop-color="#80C6EB"/>
</linearGradient>
<linearGradient id="paint9_linear_636_124" x1="17.8536" y1="6.23809" x2="17.8756" y2="33.8854" gradientUnits="userSpaceOnUse">
<stop stop-color="#DA88DE"/>
<stop offset="0.373617" stop-color="#5E75E8"/>
<stop offset="1" stop-color="#80C6EB"/>
</linearGradient>
<linearGradient id="paint10_linear_636_124" x1="17.8537" y1="6.23806" x2="17.8757" y2="33.8854" gradientUnits="userSpaceOnUse">
<stop stop-color="#DA88DE"/>
<stop offset="0.373617" stop-color="#5E75E8"/>
<stop offset="1" stop-color="#80C6EB"/>
</linearGradient>
<linearGradient id="paint11_linear_636_124" x1="17.8539" y1="6.23815" x2="17.8759" y2="33.8855" gradientUnits="userSpaceOnUse">
<stop stop-color="#DA88DE"/>
<stop offset="0.373617" stop-color="#5E75E8"/>
<stop offset="1" stop-color="#80C6EB"/>
</linearGradient>
<linearGradient id="paint12_linear_636_124" x1="17.8537" y1="6.23814" x2="17.8757" y2="33.8855" gradientUnits="userSpaceOnUse">
<stop stop-color="#DA88DE"/>
<stop offset="0.373617" stop-color="#5E75E8"/>
<stop offset="1" stop-color="#80C6EB"/>
</linearGradient>
<linearGradient id="paint13_linear_636_124" x1="17.8538" y1="6.23806" x2="17.8758" y2="33.8854" gradientUnits="userSpaceOnUse">
<stop stop-color="#DA88DE"/>
<stop offset="0.373617" stop-color="#5E75E8"/>
<stop offset="1" stop-color="#80C6EB"/>
</linearGradient>
<linearGradient id="paint14_linear_636_124" x1="17.8538" y1="6.23814" x2="17.8758" y2="33.8855" gradientUnits="userSpaceOnUse">
<stop stop-color="#DA88DE"/>
<stop offset="0.373617" stop-color="#5E75E8"/>
<stop offset="1" stop-color="#80C6EB"/>
</linearGradient>
<linearGradient id="paint15_linear_636_124" x1="17.8537" y1="6.23807" x2="17.8757" y2="33.8854" gradientUnits="userSpaceOnUse">
<stop stop-color="#DA88DE"/>
<stop offset="0.373617" stop-color="#5E75E8"/>
<stop offset="1" stop-color="#80C6EB"/>
</linearGradient>
<linearGradient id="paint16_linear_636_124" x1="17.8537" y1="6.23818" x2="17.8758" y2="33.8855" gradientUnits="userSpaceOnUse">
<stop stop-color="#DA88DE"/>
<stop offset="0.373617" stop-color="#5E75E8"/>
<stop offset="1" stop-color="#80C6EB"/>
</linearGradient>
<linearGradient id="paint17_linear_636_124" x1="17.8537" y1="6.23817" x2="17.8758" y2="33.8855" gradientUnits="userSpaceOnUse">
<stop stop-color="#DA88DE"/>
<stop offset="0.373617" stop-color="#5E75E8"/>
<stop offset="1" stop-color="#80C6EB"/>
</linearGradient>
<linearGradient id="paint18_linear_636_124" x1="17.8538" y1="6.23815" x2="17.8758" y2="33.8855" gradientUnits="userSpaceOnUse">
<stop stop-color="#DA88DE"/>
<stop offset="0.373617" stop-color="#5E75E8"/>
<stop offset="1" stop-color="#80C6EB"/>
</linearGradient>
<linearGradient id="paint19_linear_636_124" x1="17.8536" y1="6.23806" x2="17.8757" y2="33.8854" gradientUnits="userSpaceOnUse">
<stop stop-color="#DA88DE"/>
<stop offset="0.373617" stop-color="#5E75E8"/>
<stop offset="1" stop-color="#80C6EB"/>
</linearGradient>
<linearGradient id="paint20_linear_636_124" x1="17.8536" y1="6.23811" x2="17.8757" y2="33.8854" gradientUnits="userSpaceOnUse">
<stop stop-color="#DA88DE"/>
<stop offset="0.373617" stop-color="#5E75E8"/>
<stop offset="1" stop-color="#80C6EB"/>
</linearGradient>
<linearGradient id="paint21_linear_636_124" x1="17.8536" y1="6.23816" x2="17.8757" y2="33.8855" gradientUnits="userSpaceOnUse">
<stop stop-color="#DA88DE"/>
<stop offset="0.373617" stop-color="#5E75E8"/>
<stop offset="1" stop-color="#80C6EB"/>
</linearGradient>
<linearGradient id="paint22_linear_636_124" x1="17.8539" y1="6.23806" x2="17.8759" y2="33.8854" gradientUnits="userSpaceOnUse">
<stop stop-color="#DA88DE"/>
<stop offset="0.373617" stop-color="#5E75E8"/>
<stop offset="1" stop-color="#80C6EB"/>
</linearGradient>
<linearGradient id="paint23_linear_636_124" x1="17.8538" y1="6.2381" x2="17.8758" y2="33.8854" gradientUnits="userSpaceOnUse">
<stop stop-color="#DA88DE"/>
<stop offset="0.373617" stop-color="#5E75E8"/>
<stop offset="1" stop-color="#80C6EB"/>
</linearGradient>
<linearGradient id="paint24_linear_636_124" x1="17.8537" y1="6.23807" x2="17.8757" y2="33.8854" gradientUnits="userSpaceOnUse">
<stop stop-color="#DA88DE"/>
<stop offset="0.373617" stop-color="#5E75E8"/>
<stop offset="1" stop-color="#80C6EB"/>
</linearGradient>
<linearGradient id="paint25_linear_636_124" x1="17.8537" y1="6.23809" x2="17.8757" y2="33.8854" gradientUnits="userSpaceOnUse">
<stop stop-color="#DA88DE"/>
<stop offset="0.373617" stop-color="#5E75E8"/>
<stop offset="1" stop-color="#80C6EB"/>
</linearGradient>
<linearGradient id="paint26_linear_636_124" x1="17.8538" y1="6.23817" x2="17.8758" y2="33.8855" gradientUnits="userSpaceOnUse">
<stop stop-color="#DA88DE"/>
<stop offset="0.373617" stop-color="#5E75E8"/>
<stop offset="1" stop-color="#80C6EB"/>
</linearGradient>
<linearGradient id="paint27_linear_636_124" x1="17.8538" y1="6.23816" x2="17.8759" y2="33.8855" gradientUnits="userSpaceOnUse">
<stop stop-color="#DA88DE"/>
<stop offset="0.373617" stop-color="#5E75E8"/>
<stop offset="1" stop-color="#80C6EB"/>
</linearGradient>
<linearGradient id="paint28_linear_636_124" x1="17.8537" y1="6.23813" x2="17.8757" y2="33.8855" gradientUnits="userSpaceOnUse">
<stop stop-color="#DA88DE"/>
<stop offset="0.373617" stop-color="#5E75E8"/>
<stop offset="1" stop-color="#80C6EB"/>
</linearGradient>
<linearGradient id="paint29_linear_636_124" x1="17.8537" y1="6.23816" x2="17.8758" y2="33.8855" gradientUnits="userSpaceOnUse">
<stop stop-color="#DA88DE"/>
<stop offset="0.373617" stop-color="#5E75E8"/>
<stop offset="1" stop-color="#80C6EB"/>
</linearGradient>
<linearGradient id="paint30_linear_636_124" x1="17.8538" y1="6.23809" x2="17.8759" y2="33.8854" gradientUnits="userSpaceOnUse">
<stop stop-color="#DA88DE"/>
<stop offset="0.373617" stop-color="#5E75E8"/>
<stop offset="1" stop-color="#80C6EB"/>
</linearGradient>
<linearGradient id="paint31_linear_636_124" x1="17.8536" y1="6.23813" x2="17.8757" y2="33.8855" gradientUnits="userSpaceOnUse">
<stop stop-color="#DA88DE"/>
<stop offset="0.373617" stop-color="#5E75E8"/>
<stop offset="1" stop-color="#80C6EB"/>
</linearGradient>
<linearGradient id="paint32_linear_636_124" x1="17.8536" y1="6.2381" x2="17.8756" y2="33.8854" gradientUnits="userSpaceOnUse">
<stop stop-color="#DA88DE"/>
<stop offset="0.373617" stop-color="#5E75E8"/>
<stop offset="1" stop-color="#80C6EB"/>
</linearGradient>
<linearGradient id="paint33_linear_636_124" x1="17.8537" y1="6.23807" x2="17.8757" y2="33.8854" gradientUnits="userSpaceOnUse">
<stop stop-color="#DA88DE"/>
<stop offset="0.373617" stop-color="#5E75E8"/>
<stop offset="1" stop-color="#80C6EB"/>
</linearGradient>
<radialGradient id="paint34_radial_636_124" cx="0" cy="0" r="1" gradientUnits="userSpaceOnUse" gradientTransform="translate(32.4988 32.4999) rotate(-135) scale(18.3848)">
<stop stop-color="#00AE87"/>
<stop offset="1" stop-color="#0767B2"/>
</radialGradient>
</defs>
</svg>
